{"title":"G.I. Joe Retaliation-(2013)-BluRay 720p-x264-Triple Audio-[Hindi","uid":8859148,"size":1332194650,"categoryP":"video","categoryS":"hd___movies","magnet":"?xt=urn:btih:c0c0b2cab425191ce9a4e6db5964559e1fdf00b0&amp;dn=G.I.+Joe+Retaliation-%282013%29-BluRay+720p-x264-Triple+Audio-%5BHindi&amp;tr=udp%3A%2F%2Ftracker.openbittorrent.com%3A80&amp;tr=udp%3A%2F%2Fopen.demonii.com%3A1337&amp;tr=udp%3A%2F%2Ftracker.coppersurfer.tk%3A6969&amp;tr=udp%3A%2F%2Fexodus.desync.com%3A6969","seeders":0,"leechers":1,"uploader":"NokiaAnir","files":32,"time":1377734435,"description":"sample is only hindi audio.. but the film is triple audio.... download and seed please...\n\nGeneral\nFormat                           : Matroska\nFile size                        : 1.22 GiB\nDuration                         : 1h 50mn\nOverall bit rate                 : 1 588 Kbps\nEncoded date                     : UTC 2013-08-28 18:01:12\nWriting applicaion              : mkvmerge v4.4.0 ('Die Wiederkehr') built on Oct 31 2010 21:52:48\nWriting library                  : libebml v1.0.0 + libmatroska v1.0.0\n\nVideo\nID                               : 3\nFormat                           : AVC\nFormat/Info                      : Advanced Video Codec\nFormat profile                   : &lt;a class=&quot;__cf_email__&quot; href=&quot;/cdn-cgi/l/email-protection&quot; data-cfemail=&quot;da92b3bdb29a96e9f4ea&quot;&gt;[email&amp;#160;protected]&lt;/a&gt;&lt;script cf-hash='f9e31' type=&quot;text/javascript&quot;&gt;\n/* &lt;![CDATA[ */!function(){try{var t=&quot;currentScript&quot;in document?document.currentScript:function(){for(var t=document.getElementsByTagName(&quot;script&quot;),e=t.length;e--;)if(t[e].getAttribute(&quot;cf-hash&quot;))return t[e]}();if(t&amp;&amp;t.previousSibling){var e,r,n,i,c=t.previousSibling,a=c.getAttribute(&quot;data-cfemail&quot;);if(a){for(e=&quot;&quot;,r=parseInt(a.substr(0,2),16),n=2;a.length-n;n+=2)i=parseInt(a.substr(n,2),16)^r,e+=String.fromCharCode(i);e=document.createTextNode(e),c.parentNode.replaceChild(e,c)}}}catch(u){}}();/* ]]&gt; */&lt;/script&gt;\nFormat settings, CABAC           : No\nFormat settings, ReFrames        : 1 frame\nMuxing mode                      : Header stripping\nCodec ID                         : V_MPEG4/ISO/AVC\nDuration                         : 1h 50mn\nNominal bit rate                 : 1 200 Kbps\nWidth                            : 1 280 pixels\nHeight                           : 534 pixels\nDisplay aspect ratio             : 2.35:1\nFrame rate                       : 23.976 fps\nColor space                      : YUV\nChroma subsampling               : 4:2:0\nBit depth                        : 8 bits\nScan type                        : Progressive\nBits/(Pixel*Frame)               : 0.073\nWriting library                  : x264 core 80 r1378+57 6f6b50a\n\nAudio \n#1\nID                               : 1\nFormat                           : MPEG Audio\nFormat version                   : Version 1\nFormat profile                   : Layer 3\nMode                             : Joint stereo\nMuxing mode                      : Header stripping\nCodec ID                         : A_MPEG/L3\nCodec ID/Hint                    : MP3\nDuration                         : 1h 50mn\nBit rate mode                    : Constant\nBit rate                         : 128 Kbps\nChannel(s)                       : 2 channels\nSampling rate                    : 48.0 KHz\nCompression mode                 : Lossy\nStream size                      : 101 MiB (8%)\nTitle                            : latin@anirban\nWriting library                  : LAME3.97\nLanguage                         : Latin\n\nAudio \n#2\nID                               : 2\nFormat                           : MPEG Audio\nFormat version                   : Version 1\nFormat profile                   : Layer 3\nMode                             : Joint stereo\nMode extension                   : MS Stereo\nMuxing mode                      : Header stripping\nCodec ID                         : A_MPEG/L3\nCodec ID/Hint                    : MP3\nDuration                         : 1h 50mn\nBit rate mode                    : Constant\nBit rate                         : 128 Kbps\nChannel(s)                       : 2 channels\nSampling rate                    : 48.0 KHz\nCompression mode                 : Lossy\nStream size                      : 101 MiB (8%)\nTitle                            : english@anirban\nWriting library                  : LAME3.97\nLanguage                         : English\n\nAudio \n#3\nID                               : 4\nFormat                           : AAC\nFormat/Info                      : Advanced Audio Codec\nFormat profile                   : Main\nCodec ID                         : A_AAC\nDuration                         : 1h 50mn\nChannel(s)                       : 2 channels\nChannel positions                : Front: L R\nSampling rate                    : 44.1 KHz\nCompression mode                 : Lossy\nTitle                            : hindi@anirban\nLanguage                         : Hindi","torrent":{"xt":"urn:btih:c0c0b2cab425191ce9a4e6db5964559e1fdf00b0","amp;dn":"G.I.+Joe+Retaliation-%282013%29-BluRay+720p-x264-Triple+Audio-%5BHindi","amp;tr":["udp%3A%2F%2Ftracker.openbittorrent.com%3A80","udp%3A%2F%2Fopen.demonii.com%3A1337","udp%3A%2F%2Ftracker.coppersurfer.tk%3A6969","udp%3A%2F%2Fexodus.desync.com%3A6969"],"infoHash":"c0c0b2cab425191ce9a4e6db5964559e1fdf00b0","infoHashBuffer":{"type":"Buffer","data":[192,192,178,202,180,37,25,28,233,164,230,219,89,100,85,158,31,223,0,176]},"announce":[],"urlList":[]}}